<?xml version="1.0" standalone="no"?>
<!DOCTYPE svg PUBLIC "-//W3C//DTD SVG 20010904//EN"
 "http://www.w3.org/TR/2001/REC-SVG-20010904/DTD/svg10.dtd">
<svg version="1.0" xmlns="http://www.w3.org/2000/svg"
 width="1024.000000pt" height="1024.000000pt" viewBox="0 0 1024.000000 1024.000000"
 preserveAspectRatio="xMidYMid meet">
<metadata>
Created by potrace 1.14, written by Peter Selinger 2001-2017
</metadata>
<g transform="translate(0.000000,1024.000000) scale(0.100000,-0.100000)"
fill="#000000" stroke="none">
<path d="M5064 10215 c-59 -13 -127 -54 -165 -99 -15 -17 -62 -94 -106 -171
-261 -459 -303 -535 -329 -580 -66 -120 -225 -401 -234 -415 -5 -8 -19 -33
-31 -55 -12 -22 -69 -123 -127 -225 -58 -102 -114 -201 -125 -220 -11 -19 -45
-80 -75 -135 -31 -55 -60 -101 -64 -103 -4 -2 -8 -11 -8 -20 0 -8 -6 -23 -14
-31 -7 -9 -27 -41 -43 -71 -16 -30 -78 -140 -138 -245 -59 -104 -119 -210
-133 -235 -14 -25 -53 -94 -87 -155 -35 -60 -73 -128 -85 -150 -12 -22 -92
-162 -176 -312 -85 -149 -154 -273 -154 -275 0 -2 977 -3 2170 -3 1194 0 2170
2 2170 5 0 3 -10 21 -21 40 -12 19 -34 58 -49 85 -15 28 -65 115 -110 195 -46
80 -94 165 -108 190 -14 25 -63 113 -110 195 -47 83 -99 175 -115 205 -17 30
-48 84 -69 119 -21 34 -38 65 -38 66 0 2 -53 97 -118 212 -134 234 -166 291
-197 348 -12 22 -138 245 -280 495 -142 250 -266 471 -277 490 -10 19 -23 42
-29 50 -5 8 -93 164 -194 345 -155 276 -194 338 -240 381 -81 78 -181 105
-291 79z"/>
<path d="M3745 9996 c-20 -12 -186 -119 -400 -257 -420 -273 -549 -357 -585
-379 -22 -14 -147 -94 -278 -179 -130 -85 -442 -287 -692 -450 -250 -162 -464
-301 -475 -308 -11 -8 -84 -55 -162 -106 -468 -302 -462 -298 -472 -334 -12
-42 0 -72 37 -94 15 -9 176 -106 357 -216 332 -200 394 -238 430 -260 11 -6
199 -120 418 -252 219 -133 402 -241 406 -241 5 0 11 8 14 18 3 9 20 42 37 72
64 112 184 325 413 735 291 522 254 456 447 800 272 485 402 717 433 775 60
108 244 436 266 470 35 57 27 104 -28 163 -49 54 -116 71 -166 43z"/>
<path d="M6403 9983 c-47 -30 -83 -87 -83 -129 0 -16 10 -45 22 -64 11 -19 32
-55 46 -80 14 -25 85 -151 157 -280 73 -129 149 -266 170 -305 22 -38 60 -107
87 -153 26 -46 48 -86 48 -88 0 -2 11 -21 24 -42 12 -20 37 -64 55 -97 18 -33
36 -67 42 -75 5 -8 39 -69 76 -135 90 -164 171 -308 418 -750 13 -22 109 -195
215 -385 215 -386 269 -480 275 -480 4 0 245 144 495 297 74 45 162 98 195
118 33 19 77 45 97 58 20 12 94 57 165 100 70 43 135 82 143 87 8 6 107 65
220 133 322 194 328 198 333 226 5 26 -5 53 -30 82 -8 10 -124 88 -259 175
-134 88 -329 214 -432 281 -103 67 -299 194 -437 283 -137 89 -302 195 -365
236 -148 96 -275 179 -425 276 -66 43 -125 81 -131 85 -5 5 -18 13 -27 18 -16
9 -215 138 -557 361 -424 276 -421 274 -468 274 -16 0 -46 -12 -69 -27z"/>
<path d="M392 7293 c-40 -16 -39 10 -38 -1701 l1 -1644 28 -24 c16 -13 41 -24
57 -24 26 0 35 10 85 93 45 73 272 440 315 507 5 8 37 60 71 115 34 55 76 123
94 150 64 101 250 400 260 417 6 10 127 206 270 435 511 817 474 757 456 769
-16 11 -916 550 -976 584 -16 9 -148 87 -292 174 -253 151 -288 167 -331 149z"/>
<path d="M9660 7206 c-85 -51 -357 -214 -605 -361 -247 -147 -525 -313 -617
-368 -140 -83 -166 -102 -158 -116 5 -9 52 -83 104 -166 52 -82 138 -220 190
-305 53 -85 145 -233 204 -327 59 -95 142 -230 186 -300 43 -71 89 -144 101
-163 34 -51 637 -1023 732 -1177 18 -31 64 -30 100 1 l28 24 1 1639 c0 994 -3
1649 -9 1666 -5 15 -17 32 -27 37 -40 22 -77 8 -230 -84z"/>
<path d="M3150 6072 c0 -3 14 -27 30 -54 17 -26 30 -50 30 -53 0 -3 18 -34 40
-70 22 -36 40 -67 40 -69 0 -2 107 -192 238 -422 131 -231 250 -439 264 -464
14 -25 148 -261 298 -525 150 -264 282 -496 293 -515 10 -19 76 -134 145 -255
69 -121 134 -236 145 -255 10 -19 36 -64 57 -100 21 -36 50 -87 65 -115 55
-99 317 -561 332 -583 14 -23 17 -18 112 150 54 95 165 290 246 433 81 143
159 280 173 305 48 85 59 105 91 158 17 29 31 55 31 57 0 2 19 36 43 77 24 40
55 94 69 119 15 26 82 145 151 265 68 121 135 239 149 264 14 25 135 239 270
475 135 237 296 520 358 630 62 110 122 212 132 228 11 15 16 27 12 27 -4 0 0
8 8 18 8 9 30 44 48 77 17 33 50 90 71 127 21 36 39 68 39 71 0 2 -895 4
-1990 4 -1094 0 -1990 -2 -1990 -5z"/>
<path d="M2437 5863 c-25 -38 -78 -115 -117 -173 -40 -58 -132 -193 -205 -300
-182 -269 -362 -534 -407 -600 -21 -30 -43 -62 -48 -70 -6 -8 -36 -53 -68
-100 -108 -159 -336 -494 -447 -657 -292 -431 -459 -677 -601 -883 -85 -124
-162 -240 -170 -259 -34 -75 -8 -177 54 -213 16 -10 54 -20 83 -22 30 -3 72
-7 94 -10 22 -3 69 -8 105 -11 36 -4 72 -8 80 -10 8 -1 55 -6 105 -10 49 -4
92 -8 95 -10 3 -1 41 -6 85 -10 44 -3 94 -8 110 -10 17 -2 57 -7 90 -10 33 -3
71 -8 85 -10 14 -2 57 -6 95 -10 39 -3 81 -8 95 -10 14 -2 57 -6 95 -10 39 -4
84 -8 100 -10 17 -2 57 -7 90 -10 33 -3 98 -10 145 -15 47 -5 112 -12 145 -15
33 -3 74 -8 90 -10 17 -2 62 -6 100 -10 39 -4 81 -8 95 -10 14 -2 72 -9 130
-15 58 -6 123 -13 145 -15 53 -6 108 -12 240 -25 61 -6 124 -13 140 -15 39 -5
139 -16 194 -21 24 -2 60 -6 80 -8 20 -3 65 -8 101 -11 73 -7 132 -13 283 -30
90 -10 132 -14 192 -20 33 -3 71 -8 85 -10 14 -2 57 -6 95 -10 39 -3 81 -7 95
-10 14 -2 52 -7 85 -10 33 -3 83 -8 110 -11 90 -9 129 -13 194 -20 l64 -6 -20
33 c-21 35 -336 588 -381 669 -14 25 -60 106 -102 180 -42 74 -88 155 -102
180 -14 25 -69 121 -122 214 -53 93 -96 171 -96 174 0 3 -6 13 -14 21 -7 9
-29 45 -48 81 -20 36 -72 130 -118 210 -45 80 -94 165 -108 190 -13 25 -42 74
-62 110 -36 62 -379 666 -432 760 -14 25 -86 151 -160 280 -74 130 -137 242
-141 250 -4 8 -20 36 -35 61 -15 25 -67 119 -117 207 -49 89 -93 162 -96 162
-3 0 -27 -30 -52 -67z"/>
<path d="M7751 5864 c-22 -36 -41 -67 -41 -68 0 -2 -43 -80 -96 -172 -53 -93
-108 -189 -122 -214 -14 -25 -99 -175 -190 -335 -91 -159 -174 -306 -185 -325
-11 -19 -74 -132 -142 -250 -67 -118 -133 -235 -147 -260 -14 -25 -51 -90 -83
-145 -31 -55 -71 -125 -88 -155 -17 -30 -55 -98 -85 -150 -30 -52 -66 -115
-80 -140 -14 -25 -116 -205 -227 -400 -189 -331 -432 -760 -478 -840 -11 -19
-39 -69 -62 -110 -23 -41 -52 -92 -64 -113 l-22 -39 73 7 c40 3 84 8 98 10 14
2 54 6 90 10 36 3 76 7 90 10 14 2 52 7 85 10 33 3 80 7 105 10 25 3 68 7 95
10 55 6 118 13 180 20 22 3 72 7 110 10 39 3 81 8 95 10 14 3 52 7 85 10 33 3
79 8 103 10 97 11 139 16 177 20 22 3 65 7 95 10 104 10 155 16 180 20 14 2
60 7 102 10 42 3 86 8 96 10 11 2 57 6 103 10 46 4 86 8 89 10 3 1 41 6 85 10
44 4 91 9 105 10 76 8 158 17 180 20 14 2 57 6 95 10 39 3 106 10 150 15 44 5
105 12 135 15 76 7 148 15 190 20 32 4 128 14 190 20 113 11 160 16 190 20 55
7 120 14 190 20 36 3 81 7 100 10 56 7 110 14 180 20 36 3 81 8 100 10 19 3
58 7 85 10 132 14 152 17 177 27 54 21 94 119 76 186 -6 20 -62 113 -126 207
-64 93 -144 211 -177 260 -93 138 -339 500 -468 690 -64 94 -225 331 -359 528
-134 196 -319 469 -412 605 -177 260 -474 697 -539 795 -21 31 -40 57 -42 57
-1 0 -21 -30 -44 -66z"/>
<path d="M712 1923 c-17 -7 -42 -57 -42 -86 0 -36 34 -63 125 -103 44 -20 105
-47 135 -61 30 -14 69 -31 85 -38 17 -7 55 -24 85 -38 30 -14 224 -100 430
-192 206 -92 393 -175 415 -185 22 -10 330 -147 684 -305 686 -305 705 -314
851 -380 52 -24 298 -133 545 -243 248 -110 482 -214 520 -232 97 -46 148 -49
201 -14 78 51 74 12 74 768 l0 674 -37 6 c-21 3 -67 8 -103 11 -36 4 -76 8
-90 10 -23 4 -93 11 -185 20 -22 2 -67 7 -100 11 -33 4 -71 8 -85 9 -14 2 -56
6 -95 10 -38 3 -80 8 -93 10 -12 2 -57 7 -100 10 -42 4 -84 9 -93 10 -22 5
-103 14 -174 20 -33 3 -141 14 -240 25 -99 11 -202 23 -230 26 -27 3 -66 7
-85 9 -19 2 -62 7 -95 10 -57 5 -74 7 -170 19 -35 4 -66 8 -195 21 -14 2 -52
6 -85 9 -33 4 -85 9 -115 12 -30 3 -66 7 -80 9 -14 2 -52 7 -85 10 -85 8 -134
13 -180 19 -22 3 -69 8 -105 11 -36 3 -76 8 -90 10 -24 4 -53 7 -195 20 -33 4
-71 8 -85 10 -39 5 -120 14 -180 20 -30 3 -71 7 -90 9 -19 3 -62 7 -95 11 -33
3 -73 8 -90 10 -16 3 -55 7 -85 10 -30 2 -84 7 -120 10 -36 4 -92 10 -125 16
-64 10 -112 11 -133 2z"/>
<path d="M9457 1923 c-2 -1 -101 -12 -257 -28 -65 -7 -140 -15 -180 -20 -19
-2 -63 -7 -98 -10 -35 -4 -71 -8 -81 -10 -10 -2 -55 -6 -102 -10 -46 -4 -92
-9 -101 -10 -9 -2 -45 -6 -80 -10 -35 -3 -79 -8 -98 -10 -19 -2 -60 -7 -90
-10 -30 -3 -71 -8 -90 -10 -42 -5 -203 -22 -280 -30 -56 -6 -99 -11 -180 -20
-25 -3 -69 -7 -97 -10 -66 -6 -137 -14 -183 -19 -19 -3 -64 -7 -100 -11 -36
-3 -76 -7 -90 -10 -14 -2 -54 -7 -90 -10 -36 -4 -72 -8 -80 -10 -8 -2 -55 -7
-105 -10 -49 -4 -92 -8 -95 -10 -3 -2 -39 -6 -80 -10 -183 -18 -262 -26 -290
-30 -14 -2 -53 -7 -88 -10 -35 -4 -71 -8 -80 -10 -9 -1 -55 -6 -102 -10 -47
-4 -92 -9 -101 -10 -8 -2 -49 -6 -90 -10 -41 -4 -81 -9 -89 -10 -8 -1 -51 -5
-95 -10 -44 -4 -88 -9 -97 -11 -9 -1 -48 -6 -85 -9 -37 -4 -79 -8 -93 -10 -14
-2 -61 -7 -105 -11 -44 -4 -83 -9 -87 -10 -5 -1 -15 -2 -23 -3 -13 -1 -15 -84
-15 -679 l0 -678 26 -41 c30 -45 78 -73 125 -73 28 0 114 34 304 120 39 18 88
40 110 50 22 9 60 26 85 38 53 24 501 223 1250 557 503 224 632 282 714 320
17 7 155 69 306 136 285 126 331 146 415 184 28 13 176 79 330 148 154 68 303
135 330 147 28 12 64 28 80 36 45 19 75 52 75 80 0 37 -27 83 -53 89 -19 4
-96 3 -100 -2z"/>
</g>
</svg>
